# xmcd
#
# Track frame offsets:
#	225
#	9277
#	18940
#	28486
#	37785
#	45081
#	54002
#	60954
#	69215
#	80351
#	89014
#	98119
#	108843
#	118666
#	126072
#
# Disc length: 1774 seconds
#
# Revision: 1
# Processed by: cddbd v1.5.2PL0 Copyright (c) Steve Scherf et al.
# Submitted via: audiograbber 1.81.02
#
DISCID=a406eb0f
DTITLE=Rick Ruskin - THE TAKOMA SESSIONS
DYEAR=2005
DGENRE=Blues
TTITLE0=Rick Ruskin - 6-String Conspiracy
TTITLE1=Rick Ruskin - Kudah Duxx
TTITLE2=Rick Ruskin - Jamie and The Bunny
TTITLE3=Rick Ruskin - I Left My Flute At Irving's
TTITLE4=Rick Ruskin - Stealin' Home
TTITLE5=Rick Ruskin - Gatlin
TTITLE6=Rick Ruskin - Goin' and Rollin'
TTITLE7=Rick Ruskin - A Minor Little Incident
TTITLE8=Rick Ruskin - Rowena and The Nome
TTITLE9=Rick Ruskin - B.K.'s Jig
TTITLE10=Rick Ruskin - The Return Of The Flute
TTITLE11=Rick Ruskin - Maze Music For Mice
TTITLE12=Rick Ruskin - Microphone Fever
TTITLE13=Rick Ruskin - C.C.'s Revenge
TTITLE14=Rick Ruskin - Goofin' With Gary
EXTD=
EXTT0=
EXTT1=
EXTT2=
EXTT3=
EXTT4=
EXTT5=
EXTT6=
EXTT7=
EXTT8=
EXTT9=
EXTT10=
EXTT11=
EXTT12=
EXTT13=
EXTT14=
PLAYORDER=
